<svg xmlns="http://www.w3.org/2000/svg" viewBox="0 0 32 32" width="32" height="32">
  <linearGradient
    id="agriq-plant-pot"
    x1="8"
    x2="24"
    y1="24"
    y2="24"
    gradientUnits="userSpaceOnUse"
  >
    <stop offset="0" stop-color="#eb6600" stop-opacity=".95" />
    <stop offset="1" stop-color="#eb6600" stop-opacity=".5" />
  </linearGradient>
  <path
    fill="url(#agriq-plant-pot)"
    d="M23.781,18.375C23.591,18.138,23.304,18,23,18H9c-0.304,0-0.591,0.138-0.781,0.375 c-0.189,0.237-0.261,0.548-0.194,0.844l1.858,8.266C10.217,28.966,11.51,30,13.026,30h5.947c1.517,0,2.81-1.034,3.144-2.515 l1.858-8.266C24.042,18.923,23.971,18.612,23.781,18.375z"
  />
  <linearGradient
    id="agriq-plant-leaf"
    x1="7.404"
    x2="22.86"
    y1="-1.612"
    y2="13.843"
    gradientUnits="userSpaceOnUse"
  >
    <stop offset="0" stop-color="#00cf30" stop-opacity=".95" />
    <stop offset="1" stop-color="#00cf30" stop-opacity=".5" />
  </linearGradient>
  <path
    fill="url(#agriq-plant-leaf)"
    d="M25.976,5.192c-3.515-0.646-6.734,0.399-8.202,2.667c-0.718,1.107-1.003,2.762-0.53,4.137	c-0.361,0.396-0.691,0.803-0.962,1.233c-0.268-0.811-0.635-1.658-1.127-2.535c0.765-1.585,0.503-3.715,0.082-4.886	c-1.739-4.842-8.186-5.718-8.915-5.803C6.058-0.027,5.789,0.051,5.581,0.219C5.372,0.387,5.239,0.632,5.213,0.898	c-0.073,0.731-0.589,7.219,3.754,9.95c0.841,0.529,2.3,1.093,3.726,1.093c0.275,0,0.548-0.027,0.817-0.073	C14.997,14.622,15,16.841,15,18h2c0-1.775,0.494-3.211,1.559-4.47c0.792,0.309,1.514,0.443,2.155,0.443	c1.142,0,2.039-0.391,2.676-0.814c2.394-1.593,3.446-5.123,3.404-7.006C26.783,5.679,26.441,5.278,25.976,5.192z"
  />
  <linearGradient
    id="agriq-plant-highlight"
    x1="10.563"
    x2="19.768"
    y1="6.026"
    y2="15.232"
    gradientUnits="userSpaceOnUse"
  >
    <stop offset="0" stop-color="#fff" stop-opacity=".8" />
    <stop offset=".519" stop-color="#fff" stop-opacity=".5" />
    <stop offset="1" stop-color="#fff" stop-opacity=".6" />
  </linearGradient>
  <path
    fill="url(#agriq-plant-highlight)"
    d="M21.86,9.83c-0.28-0.47-0.89-0.64-1.37-0.36c-1.931,1.108-3.312,2.334-4.208,3.759	c-0.695-2.104-2.033-4.444-4.582-6.939C11.31,5.9,10.67,5.9,10.29,6.3C9.9,6.69,9.91,7.33,10.3,7.71C15,12.32,15,16.3,15,18h2	c0-2.96,1.34-4.99,4.49-6.8C21.97,10.93,22.13,10.31,21.86,9.83z"
  />
  <linearGradient
    id="agriq-plant-glass"
    x1="3.576"
    x2="25.837"
    y1="2.216"
    y2="24.477"
    gradientUnits="userSpaceOnUse"
  >
    <stop offset="0" stop-color="#fff" stop-opacity=".6" />
    <stop offset=".493" stop-color="#fff" stop-opacity="0" />
    <stop offset=".997" stop-color="#fff" stop-opacity=".3" />
  </linearGradient>
  <path
    fill="url(#agriq-plant-glass)"
    d="M6.207,0.498c0.019,0,0.038,0.001,0.057,0.003c0.698,0.081,6.866,0.921,8.502,5.475	c0.362,1.007,0.644,3.037-0.062,4.5l-0.113,0.235l0.127,0.227c0.451,0.804,0.817,1.627,1.088,2.447l0.333,1.007l0.565-0.898	c0.229-0.365,0.518-0.734,0.908-1.162l0.2-0.219l-0.096-0.28c-0.399-1.159-0.207-2.647,0.477-3.702	c1.065-1.645,3.217-2.627,5.758-2.627c0.633,0,1.284,0.061,1.934,0.18c0.232,0.043,0.404,0.245,0.409,0.48	c0.041,1.843-1.042,5.155-3.181,6.579c-0.729,0.485-1.536,0.73-2.399,0.73c-0.614,0-1.278-0.138-1.973-0.409l-0.333-0.13	l-0.231,0.273C17.049,14.541,16.5,16.109,16.5,18v0.5H17h6c0.153,0,0.295,0.069,0.391,0.187c0.095,0.119,0.131,0.273,0.097,0.423	l-1.858,8.265c-0.282,1.251-1.374,2.125-2.656,2.125h-5.947c-1.281,0-2.374-0.874-2.656-2.124L8.512,19.11	c-0.034-0.149,0.002-0.304,0.096-0.422C8.705,18.569,8.847,18.5,9,18.5h6h0.5V18c0-1.135,0-3.498-1.551-6.369l-0.171-0.316	l-0.354,0.061c-0.252,0.044-0.498,0.066-0.731,0.066c-1.274,0-2.656-0.51-3.459-1.017C5.144,7.854,5.64,1.647,5.71,0.948	c0.013-0.132,0.08-0.255,0.185-0.339C5.984,0.537,6.094,0.498,6.207,0.498L6.207,0.498 M6.207-0.002	c-0.226,0-0.448,0.078-0.626,0.222C5.372,0.387,5.239,0.632,5.213,0.898c-0.073,0.731-0.589,7.219,3.754,9.95	c0.841,0.529,2.3,1.093,3.726,1.093c0.275,0,0.548-0.027,0.817-0.073C14.997,14.622,15,16.841,15,18H9	c-0.304,0-0.591,0.138-0.781,0.375c-0.189,0.237-0.261,0.548-0.194,0.844l1.858,8.266C10.217,28.966,11.51,30,13.026,30h5.947	c1.517,0,2.81-1.034,3.144-2.515l1.858-8.266c0.066-0.296-0.005-0.607-0.194-0.844C23.591,18.138,23.304,18,23,18h-6	c0-1.775,0.494-3.211,1.559-4.47c0.792,0.309,1.514,0.443,2.155,0.443c1.142,0,2.039-0.391,2.676-0.814	c2.394-1.593,3.446-5.123,3.404-7.006c-0.011-0.474-0.353-0.875-0.818-0.961c-0.69-0.127-1.369-0.188-2.025-0.188	c-2.687,0-4.998,1.033-6.177,2.855c-0.718,1.107-1.003,2.762-0.53,4.137c-0.361,0.396-0.691,0.803-0.962,1.233	c-0.268-0.811-0.635-1.658-1.127-2.535c0.765-1.585,0.503-3.715,0.082-4.886c-1.739-4.842-8.186-5.718-8.915-5.803	C6.284,0,6.246-0.002,6.207-0.002L6.207-0.002z"
  />
</svg>
